<svg width="35" height="35" viewBox="0 0 35 35" fill="none" xmlns="http://www.w3.org/2000/svg">
<g clip-path="url(#clip0_203_34)">
<path fill-rule="evenodd" clip-rule="evenodd" d="M33.3334 16.6233H33.3284C32.4084 16.625 31.6651 17.375 31.6668 18.295C31.6768 21.8567 30.3001 25.2083 27.7884 27.735C25.2784 30.26 21.9334 31.6567 18.3718 31.6667H18.3334C14.7851 31.6667 11.4484 30.29 8.93176 27.7883C6.40676 25.2767 5.0101 21.9333 5.0001 18.3717C4.9901 14.81 6.36676 11.4567 8.87843 8.93166C11.3884 6.40666 14.7334 5.01 18.2951 5C19.3384 5.01666 20.4368 5.12166 21.4718 5.37166C22.3618 5.585 23.2668 5.035 23.4818 4.14166C23.6984 3.24666 23.1468 2.34666 22.2534 2.13C20.9601 1.82 19.6101 1.68666 18.2851 1.66666C13.8334 1.68 9.65343 3.425 6.5151 6.58166C3.3751 9.73833 1.65343 13.9283 1.66676 18.3817C1.6801 22.8333 3.4251 27.0133 6.58176 30.1517C9.72676 33.28 13.8984 35 18.3334 35H18.3818C22.8334 34.9867 27.0134 33.2417 30.1518 30.085C33.2918 26.9283 35.0134 22.7367 35.0001 18.285C34.9984 17.3667 34.2518 16.6233 33.3334 16.6233Z" fill="white"/>
<path fill-rule="evenodd" clip-rule="evenodd" d="M14.5118 17.1548C13.8601 16.5032 12.8068 16.5032 12.1551 17.1548C11.5035 17.8065 11.5035 18.8598 12.1551 19.5115L17.1551 24.5115C17.4685 24.8248 17.8918 24.9998 18.3335 24.9998C18.3518 24.9998 18.3701 24.9998 18.3885 24.9998C18.8501 24.9832 19.2835 24.7782 19.5868 24.4315L31.2535 11.0982C31.8601 10.4048 31.7901 9.3515 31.0985 8.7465C30.4051 8.13983 29.3535 8.21316 28.7468 8.9015L18.2518 20.8948L14.5118 17.1548Z" fill="white"/>
</g>
<defs>
<clipPath id="clip0_203_34">
<rect width="35" height="35" fill="white"/>
</clipPath>
</defs>
</svg>
