<svg width="18" height="15" viewBox="0 0 18 15" fill="none" xmlns="http://www.w3.org/2000/svg">
<path fill-rule="evenodd" clip-rule="evenodd" d="M9.75 8.75C9.75 9.164 9.414 9.5 9 9.5C8.586 9.5 8.25 9.164 8.25 8.75V5.75C8.25 5.336 8.586 5 9 5C9.414 5 9.75 5.336 9.75 5.75V8.75ZM9 11.75C8.586 11.75 8.25 11.414 8.25 11C8.25 10.586 8.586 10.25 9 10.25C9.414 10.25 9.75 10.586 9.75 11C9.75 11.414 9.414 11.75 9 11.75V11.75ZM16.9207 11.2273L11.1667 1.688C10.7175 0.944 9.9075 0.5 9 0.5C8.0925 0.5 7.2825 0.944 6.83325 1.688L1.07925 11.2273C0.653247 11.9345 0.640497 12.785 1.0455 13.502C1.47975 14.2723 2.3235 14.75 3.246 14.75H14.754C15.6765 14.75 16.5202 14.2723 16.9545 13.502C17.3595 12.785 17.3467 11.9345 16.9207 11.2273V11.2273Z" fill="url(#paint0_linear_133_41)"/>
<defs>
<linearGradient id="paint0_linear_133_41" x1="9" y1="0.5" x2="9" y2="14.75" gradientUnits="userSpaceOnUse">
<stop stop-color="#FF5959"/>
<stop offset="1" stop-color="#EF2C2C"/>
</linearGradient>
</defs>
</svg>
