<svg width="40" height="40" viewBox="0 0 40 40" fill="none" xmlns="http://www.w3.org/2000/svg">
<circle cx="20" cy="20" r="20" fill="white"/>
<path fill-rule="evenodd" clip-rule="evenodd" d="M12 22C12 21.45 12.45 21 13 21C13.55 21 14 21.45 14 22C14 22.55 13.55 23 13 23C12.45 23 12 22.55 12 22ZM17 21H21C21.55 21 22 21.45 22 22C22 22.55 21.55 23 21 23H17C16.45 23 16 22.55 16 22C16 21.45 16.45 21 17 21ZM23 26H11C10.449 26 10 25.551 10 25V19H24V25C24 25.551 23.551 26 23 26M11 12H12V13C12 13.55 12.45 14 13 14C13.55 14 14 13.55 14 13V12H20V13C20 13.55 20.45 14 21 14C21.55 14 22 13.55 22 13V12H23C23.551 12 24 12.449 24 13V17H10V13C10 12.449 10.449 12 11 12M28 10.4H26.6667V9.2C26.6667 8.54 26.0667 8 25.3333 8C24.6 8 24 8.54 24 9.2V10.4H16V9.2C16 8.54 15.4 8 14.6667 8C13.9333 8 13.3333 8.54 13.3333 9.2V10.4H12C9.79467 10.4 8 12.0152 8 14V28.4C8 30.3848 9.79467 32 12 32H28C30.2053 32 32 30.3848 32 28.4V14C32 12.0152 30.2053 10.4 28 10.4" fill="#757D8A"/>
</svg>
