<svg width="40" height="40" viewBox="0 0 40 40" fill="none" xmlns="http://www.w3.org/2000/svg">
<circle cx="20" cy="20" r="20" fill="white"/>
<path fill-rule="evenodd" clip-rule="evenodd" d="M24.8 18.8H21.2V15.2C21.2 14.5364 20.6624 14 20 14C19.3376 14 18.8 14.5364 18.8 15.2V20C18.8 20.6636 19.3376 21.2 20 21.2H24.8C25.4636 21.2 26 20.6636 26 20C26 19.3364 25.4636 18.8 24.8 18.8M20 29.6C14.7068 29.6 10.4 25.2932 10.4 20C10.4 14.7068 14.7068 10.4 20 10.4C25.2932 10.4 29.6 14.7068 29.6 20C29.6 25.2932 25.2932 29.6 20 29.6M20 8C13.3832 8 8 13.3832 8 20C8 26.6168 13.3832 32 20 32C26.6168 32 32 26.6168 32 20C32 13.3832 26.6168 8 20 8" fill="#757D8A"/>
</svg>
