<svg width="13" height="16" viewBox="0 0 13 16" fill="none" xmlns="http://www.w3.org/2000/svg">
<rect width="13" height="13" rx="1" fill="white"/>
<path d="M4.96 8.572H4.264V7.072H4.96C4.968 6.352 5.164 5.812 5.548 5.452C5.94 5.084 6.512 4.9 7.264 4.9C7.44 4.9 7.628 4.912 7.828 4.936C8.036 4.952 8.232 4.98 8.416 5.02V6.4C8.312 6.384 8.184 6.372 8.032 6.364C7.88 6.348 7.744 6.34 7.624 6.34C7.24 6.34 7 6.376 6.904 6.448C6.808 6.52 6.76 6.672 6.76 6.904V7.072H8.236V8.572H6.76V13H4.96V8.572Z" fill="#35A6EF"/>
</svg>
